<svg t="1693125229717" class="icon" viewBox="0 0 1024 1024" version="1.1" xmlns="http://www.w3.org/2000/svg" p-id="6594" width="200" height="200"><path d="M487.2192 147.456c137.58464 0 259.93216 83.27168 312.81152 208.85504 10.81344 25.68192 18.51392 52.67456 22.81472 80.44544a16.384 16.384 0 1 1-32.3584 5.03808 309.98528 309.98528 0 0 0-20.64384-72.78592c-47.80032-113.54112-158.39232-188.78464-282.624-188.78464C317.68576 180.224 180.224 318.99648 180.224 490.25024c0 171.2128 137.46176 310.02624 306.9952 310.02624a305.02912 305.02912 0 0 0 116.65408-23.18336 16.384 16.384 0 1 1 12.57472 30.26944 335.13472 335.13472 0 0 1-129.2288 25.68192c-187.67872 0-339.7632-153.51808-339.7632-342.8352 0-189.2352 152.08448-342.75328 339.7632-342.75328z m294.17472 344.064c92.24192 0 166.99392 75.48928 166.99392 168.5504 0 93.10208-74.752 168.59136-166.99392 168.59136S614.4 753.17248 614.4 660.0704C614.4 567.00928 689.152 491.52 781.39392 491.52z m0 32.768c-74.05568 0-134.22592 60.74368-134.22592 135.7824 0 75.07968 60.17024 135.82336 134.22592 135.82336 74.09664 0 134.22592-60.74368 134.22592-135.82336 0-75.03872-60.12928-135.7824-134.22592-135.7824zM491.52 324.07552c9.0112 0 16.384 7.33184 16.384 16.384v131.44064l57.22112 63.56992a16.384 16.384 0 0 1-24.33024 21.9136l-61.44-68.23936a16.384 16.384 0 0 1-4.21888-10.93632V340.45952c0-9.05216 7.3728-16.384 16.384-16.384z" fill="#474B55" p-id="6595"></path><path d="M782.41792 701.48096a20.48 20.48 0 1 1 0 40.96 20.48 20.48 0 0 1 0-40.96z m0-138.32192a19.2512 19.2512 0 0 1 19.16928 20.39808l-5.7344 89.98912a13.312 13.312 0 0 1-26.624 0l-5.9392-89.98912a19.16928 19.16928 0 0 1 19.12832-20.39808z" fill="#FC652F" p-id="6596"></path></svg>