<svg t="1693124748343" class="icon" viewBox="0 0 1053 1024" version="1.1" xmlns="http://www.w3.org/2000/svg" p-id="4056" width="200" height="200"><path d="M473.545583 844.062352H92.871044a44.500709 44.500709 0 0 1-44.500709-44.500708V332.304204a28.054795 28.054795 0 0 0 8.706661 0h706.6906v96.740671a24.185168 24.185168 0 0 0 24.185167 24.185168 24.185168 24.185168 0 0 0 24.185168-24.185168V173.165801a92.871044 92.871044 0 0 0-92.871044-92.871044h-93.354747V24.185168a24.185168 24.185168 0 0 0-24.185168-24.185168 24.185168 24.185168 0 0 0-24.185168 24.185168v56.109589H217.666509V24.185168a24.185168 24.185168 0 0 0-48.370335 0v56.109589H92.871044A92.871044 92.871044 0 0 0 0 173.165801v628.81436a92.871044 92.871044 0 0 0 92.871044 92.871044h380.674539a24.185168 24.185168 0 0 0 24.185168-24.185168 24.668871 24.668871 0 0 0-24.185168-26.603685zM92.871044 128.665092H169.296174v67.71847a24.185168 24.185168 0 0 0 48.370335 0v-67.71847h359.875295v67.71847a24.668871 24.668871 0 0 0 24.185168 24.185167 24.185168 24.185168 0 0 0 24.185168-24.185167v-67.71847h93.354747a44.500709 44.500709 0 0 1 44.500709 44.500709v112.702881H57.076996a27.571091 27.571091 0 0 0-8.706661 0V173.165801a44.500709 44.500709 0 0 1 44.500709-44.500709z" p-id="4057"></path><path d="M773.925366 467.741143a278.129428 278.129428 0 1 0 278.129429 278.129429A278.613132 278.613132 0 0 0 773.925366 467.741143z m0 507.888522a229.759093 229.759093 0 1 1 229.759093-229.759093A229.759093 229.759093 0 0 1 773.925366 975.629665z" p-id="4058"></path><path d="M913.231932 725.555031h-109.800661v-174.133208a24.185168 24.185168 0 0 0-48.370336 0v198.318375a24.185168 24.185168 0 0 0 24.185168 24.185168h133.985829a24.185168 24.185168 0 0 0 0-48.370335zM343.429381 448.876712H230.242796a24.185168 24.185168 0 0 0 0 48.370336H343.429381a24.185168 24.185168 0 0 0 0-48.370336zM343.429381 647.195087H230.242796a24.185168 24.185168 0 0 0 0 48.370336H343.429381a24.185168 24.185168 0 0 0 0-48.370336z" p-id="4059"></path></svg>