<svg t="1693242715569" class="icon" viewBox="0 0 1024 1024" version="1.1" xmlns="http://www.w3.org/2000/svg" p-id="11543" width="200" height="200"><path d="M265.159111 212.366222a9.159111 9.159111 0 0 0-9.130667 9.130667v54.869333c0 5.034667 4.124444 9.130667 9.130667 9.130667h438.869333a9.159111 9.159111 0 0 0 9.130667-9.130667V221.496889a9.159111 9.159111 0 0 0-9.130667-9.130667H265.159111z m210.289778 164.579556H265.159111a9.159111 9.159111 0 0 0-9.130667 9.130666v54.869334c0 5.006222 4.124444 9.130667 9.130667 9.130666h210.289778a9.159111 9.159111 0 0 0 9.159111-9.130666v-54.869334a9.159111 9.159111 0 0 0-9.159111-9.130666z m-54.840889 523.406222h-256V95.800889h640v365.710222c0 5.034667 4.096 9.130667 9.130667 9.130667h64a9.159111 9.159111 0 0 0 9.159111-9.130667V50.062222c0-20.252444-16.355556-36.579556-36.579556-36.579555H118.897778c-20.252444 0-36.579556 16.327111-36.579556 36.579555v896c0 20.195556 16.327111 36.551111 36.579556 36.551111h301.710222a9.159111 9.159111 0 0 0 9.130667-9.130666v-64a9.159111 9.159111 0 0 0-9.130667-9.159111z m502.840889-100.551111H758.897778v-41.813333a128 128 0 0 0 91.448889-122.766223c0-70.741333-57.258667-128-128-128a127.943111 127.943111 0 0 0-128 128 128.113778 128.113778 0 0 0 91.420444 122.737778v41.813333h-164.579555a18.346667 18.346667 0 0 0-18.261334 18.289778v173.738667c0 10.040889 8.220444 18.261333 18.261334 18.261333h402.289777c10.069333 0 18.289778-8.220444 18.289778-18.261333V818.062222a18.346667 18.346667 0 0 0-18.289778-18.261333z m-258.275556-164.579556a57.173333 57.173333 0 1 1 114.346667 0.028445 57.173333 57.173333 0 0 1-114.346667-0.028445z m205.710223 303.985778H573.752889v-68.551111h297.130667v68.551111z"  fill-opacity=".65" p-id="11544"></path></svg>