<svg t="1693125280968" class="icon" viewBox="0 0 1024 1024" version="1.1" xmlns="http://www.w3.org/2000/svg" p-id="9290" width="200" height="200"><path d="M776.41955555 794.51022222H720.21333333c-12.06044445 0.45511111-22.18666667-8.87466667-22.64177778-20.93511111-0.45511111-12.06044445 8.87466667-22.18666667 20.93511112-22.64177778h57.91288888c12.06044445-0.22755555 22.07288889 9.216 22.30044445 21.27644445s-9.216 22.07288889-21.27644445 22.30044444h-1.024zM498.34666667 687.90044445c-18.77333333 0.11377778-36.75022222-7.28177778-50.06222222-20.48l-144.27022223-143.36c-111.16088889-110.47822222-115.02933333-289.33688889-8.53333333-398.67733334C397.76711111 20.36622222 566.15822222 11.37777778 678.79822222 104.78933333c9.32977778 7.62311111 10.58133333 21.39022222 2.84444445 30.72-7.62311111 9.32977778-21.39022222 10.58133333-30.72 2.84444445-95.45955555-79.07555555-237.79555555-71.33866667-324.26666667 17.408-89.88444445 92.27377778-86.35733333 243.59822222 7.96444445 337.35111111l144.27022222 143.36c10.69511111 10.58133333 27.87555555 10.58133333 38.45688888 0l144.9528889-143.92888889c77.25511111-76.68622222 95.11822222-195.24266667 43.57688888-288.19911111-6.25777778-10.24-3.072-23.66577778 7.168-30.03733334 10.24-6.25777778 23.66577778-3.072 30.03733334 7.168 0.34133333 0.56888889 0.68266667 1.13777778 0.91022222 1.70666667 60.98488889 109.90933333 40.04977778 249.856-50.97244444 340.30933333L548.29511111 667.42044445c-13.312 13.19822222-31.28888889 20.59377778-49.94844444 20.48zM771.86844445 874.83733333H609.84888889c-11.60533333 0.22755555-21.04888889 9.67111111-21.27644444 21.27644445-0.34133333 12.06044445 9.216 22.07288889 21.27644444 22.30044444h146.88711111c-0.34133333-2.27555555-0.45511111-4.55111111-0.45511111-6.94044444 0-14.44977778 6.03022222-27.42044445 15.58755556-36.63644445z" p-id="9291"></path><path d="M941.16977778 765.49688889l-49.37955556-85.56088889c-25.48622222-43.91822222-72.36266667-70.88355555-123.10755555-70.99733333H668.78577778c-12.06044445 0.22755555-21.504 10.24-21.27644445 22.30044444s10.24 21.504 22.30044445 21.27644444h98.75911111c35.15733333 0.11377778 67.69777778 18.77333333 85.33333333 49.26577778l49.37955556 85.56088889c15.47377778 26.624 17.52177778 59.05066667 5.46133333 87.49511111h-66.10488889c9.67111111 9.216 15.58755555 22.18666667 15.58755556 36.63644445 0 2.38933333-0.22755555 4.66488889-0.45511111 6.94044444h64.39822222c7.85066667 0 15.01866667-4.20977778 19.00088889-10.80888889 25.37244445-44.032 25.37244445-98.19022222 0-142.10844444z" p-id="9292"></path><path d="M807.25333333 984.17777778c-40.16355555 0-72.704-32.54044445-72.704-72.704s32.54044445-72.704 72.704-72.704 72.704 32.54044445 72.704 72.704c-0.11377778 40.16355555-32.65422222 72.704-72.704 72.704z m0-101.83111111c-16.04266667 0-29.12711111 13.08444445-29.12711111 29.12711111s13.08444445 29.12711111 29.12711111 29.12711111 29.12711111-13.08444445 29.12711112-29.12711111-13.08444445-29.12711111-29.12711112-29.12711111z" p-id="9293"></path><path d="M444.07466667 305.72088889a54.272 54.15822222 0 1 0 108.544 0 54.272 54.15822222 0 1 0-108.544 0Z" p-id="9294"></path><path d="M631.808 922.51022222L498.80177778 699.27822222c-3.86844445-6.48533333-10.80888889-10.46755555-18.31822223-10.69511111h-0.34133333c-7.39555555 0-14.336 3.75466667-18.31822222 10.01244444l-67.47022222 104.90311112-138.01244445-214.58488889c-4.096-6.37155555-11.03644445-9.55733333-18.77333333-10.01244445-7.50933333 0.11377778-14.44977778 4.20977778-18.31822222 10.69511112L78.62044445 825.45777778c-9.55733333 16.15644445-14.67733333 34.58844445-14.67733334 53.248 0 57.57155555 46.64888889 104.10666667 104.22044444 104.10666667H199.11111111c12.06044445 0 21.84533333-9.78488889 21.84533334-21.84533334s-9.78488889-21.84533333-21.84533334-21.84533333h-30.94755556c-10.92266667 0-21.61777778-2.95822222-30.94755555-8.53333333-28.78577778-17.06666667-38.22933333-54.272-21.04888889-82.944l122.53866667-205.71022223 129.70666667 201.728-50.176 78.05155556c-6.48533333 10.12622222-3.64088889 23.66577778 6.48533333 30.15111111 10.12622222 6.48533333 23.66577778 3.64088889 30.15111111-6.48533334l124.47288889-193.64977777 114.91555555 192.96711111c3.98222222 6.59911111 11.03644445 10.69511111 18.77333334 10.69511111 3.98222222 0 7.85066667-1.024 11.15022222-3.072 10.46755555-6.03022222 13.76711111-19.456 7.62311111-29.80977778z" p-id="9295"></path></svg>