<svg t="1693292730493" class="icon" viewBox="0 0 1024 1024" version="1.1" xmlns="http://www.w3.org/2000/svg" p-id="4243" width="200" height="200"><path d="M667.114667 598.058667a14.4 14.4 0 0 1-2.624-22.186667A212.629333 212.629333 0 0 0 725.333333 426.666667c0-117.824-95.509333-213.333333-213.333333-213.333334s-213.333333 95.509333-213.333333 213.333334a212.629333 212.629333 0 0 0 60.842666 149.205333 14.4 14.4 0 0 1-2.624 22.186667A298.538667 298.538667 0 0 0 213.610667 840.533333c-0.298667 7.04 5.461333 12.8 12.522666 12.8h59.733334a13.44 13.44 0 0 0 13.184-12.8c6.613333-111.872 99.413333-200.533333 212.949333-200.533333 113.514667 0 206.336 88.661333 212.949333 200.533333 0.426667 7.04 6.122667 12.8 13.184 12.8h59.733334c7.061333 0 12.821333-5.76 12.522666-12.8a298.538667 298.538667 0 0 0-143.274666-242.474666zM640 426.666667a128 128 0 1 1-256 0 128 128 0 0 1 256 0z"  p-id="4244"></path><path d="M761.472 506.816a14.037333 14.037333 0 0 0-9.258667 8.533333c-8.661333 23.466667-20.693333 45.333333-35.456 64.981334-4.970667 6.613333 0.298667 17.002667 8.576 17.002666 113.514667 0 206.336 88.661333 212.949334 200.533334 0.426667 7.04 6.122667 12.8 13.184 12.8h59.733333c7.061333 0 12.821333-5.76 12.522667-12.8a298.538667 298.538667 0 0 0-143.274667-242.474667 14.4 14.4 0 0 1-2.624-22.186667A212.629333 212.629333 0 0 0 938.666667 384c0-117.824-95.509333-213.333333-213.333334-213.333333a212.757333 212.757333 0 0 0-78.954666 15.082666c-9.685333 3.861333-9.6 17.088-0.725334 22.528 19.946667 12.245333 38.08 27.114667 53.909334 44.16a14.016 14.016 0 0 0 11.797333 4.309334 128 128 0 0 1 50.112 250.069333zM271.786667 515.349333a14.037333 14.037333 0 0 0-9.258667-8.533333 128 128 0 1 1 50.112-250.069333 14.016 14.016 0 0 0 11.776-4.309334 257.237333 257.237333 0 0 1 53.930667-44.16c8.874667-5.44 8.96-18.666667-0.725334-22.528A212.757333 212.757333 0 0 0 298.666667 170.666667C180.842667 170.666667 85.333333 266.176 85.333333 384a212.629333 212.629333 0 0 0 60.864 149.205333 14.4 14.4 0 0 1-2.645333 22.186667A298.538667 298.538667 0 0 0 0.277333 797.866667c-0.298667 7.04 5.461333 12.8 12.522667 12.8h59.733333a13.44 13.44 0 0 0 13.184-12.8C92.330667 685.994667 185.130667 597.333333 298.666667 597.333333c8.277333 0 13.546667-10.368 8.576-17.002666a255.466667 255.466667 0 0 1-35.456-64.981334z"  p-id="4245"></path></svg>