<svg t="1693125350490" class="icon" viewBox="0 0 1024 1024" version="1.1" xmlns="http://www.w3.org/2000/svg" p-id="11540" width="200" height="200"><path d="M424.949 241.866l209.233 0c16.478 0 29.89-13.502 29.89-30.112l0-75.281c0-16.607-13.411-30.114-29.89-30.114l-209.233 0c-16.484 0-29.891 13.505-29.891 30.114l0 75.281C395.064 228.363 408.466 241.866 424.949 241.866zM424.949 136.473l209.233 0 0.012 75.281L424.949 211.754 424.949 136.473 424.949 136.473zM813.522 106.359 693.961 106.359l0 30.114 119.56 0c24.725 0 44.834 20.262 44.834 45.169l0 602.257c0 24.908-20.11 45.168-44.834 45.168L245.609 829.067c-24.721 0-44.834-20.259-44.834-45.168l0-602.256c0-24.906 20.113-45.169 44.834-45.169l119.56 0L365.169 106.36l-119.56 0c-41.199 0-74.724 33.776-74.724 75.282L170.885 783.9c0 41.509 33.524 75.285 74.724 75.285l567.912 0c41.203 0 74.724-33.775 74.724-75.285L888.245 181.643C888.246 140.136 854.725 106.359 813.522 106.359z" fill="#272636" p-id="11541"></path><path d="M726.61504 584.10496c-4.83328-8.53504-10.80832-17.84832-17.92-27.94496-7.11168-10.09664-14.79168-20.33664-23.04-30.72-8.24832-10.38336-17.06496-20.62336-26.45504-30.72-9.38496-10.09664-18.91328-19.69664-28.58496-28.8l19.2-18.77504c8.53504 8.53504 17.35168 17.77664 26.45504 27.73504 9.10336 9.95328 18.06336 20.05504 26.88 30.29504 8.81664 10.24 17.13664 20.40832 24.96 30.50496s15.00672 19.55328 21.54496 28.37504L726.61504 584.10496zM626.34496 349.44c-2.27328 1.42336-4.12672 3.2-5.54496 5.33504-1.42336 2.13504-2.13504 4.48-2.13504 7.04L618.66496 650.24c0 6.82496 0.07168 13.01504 0.21504 18.56 0.14336 5.54496 0.35328 10.88 0.64 16 0.28672 5.12 0.64 10.24 1.06496 15.36 0.42496 5.12 0.92672 10.52672 1.49504 16.21504l-33.70496 0c1.42336-11.37664 2.41664-22.18496 2.98496-32.42496s0.85504-21.47328 0.85504-33.70496L592.21504 422.4c0-11.09504-0.07168-20.90496-0.21504-29.44s-0.28672-16.14336-0.42496-22.82496c-0.14336-6.68672-0.42496-12.58496-0.85504-17.70496-0.42496-5.12-0.92672-9.81504-1.49504-14.08 5.97504 0.56832 11.87328 1.06496 17.70496 1.49504 5.83168 0.42496 11.87328 0.64 18.13504 0.64 2.84672 0 4.55168 0.99328 5.12 2.98496C630.75328 345.45664 629.47328 347.44832 626.34496 349.44L626.34496 349.44zM489.38496 561.49504c9.95328-17.35168 17.77664-35.27168 23.46496-53.76 5.68832-18.48832 10.09664-39.96672 13.22496-64.42496L437.76 443.31008c-9.10336 17.92-18.98496 35.27168-29.65504 52.05504-10.66496 16.78336-21.54496 32.42496-32.64 46.93504-4.83328-4.26496-9.24672-7.46496-13.22496-9.6-3.98336-2.13504-8.39168-3.48672-13.22496-4.05504 6.82496-6.82496 13.58336-14.36672 20.26496-22.61504 6.68672-8.24832 12.94336-16.64 18.77504-25.17504 5.83168-8.53504 11.16672-16.99328 16-25.38496 4.83328-8.39168 8.96-16.28672 12.37504-23.68 7.11168-15.92832 13.22496-31.71328 18.34496-47.36 5.12-15.64672 9.10336-30.72 11.94496-45.22496 5.97504 2.56 11.44832 4.40832 16.42496 5.54496 4.97664 1.13664 10.31168 1.84832 16 2.13504 3.69664 0.28672 5.76 1.35168 6.18496 3.2 0.42496 1.84832-1.35168 3.76832-5.33504 5.76-3.41504 1.70496-6.32832 4.62336-8.74496 8.74496-2.41664 4.12672-5.19168 10.73664-8.32 19.84-4.55168 12.51328-9.52832 24.88832-14.93504 37.12 19.34336 0 35.41504-0.07168 48.21504-0.21504 12.8-0.14336 23.32672-0.28672 31.57504-0.42496 8.24832-0.14336 14.64832-0.35328 19.2-0.64 4.55168-0.28672 8.10496-0.71168 10.66496-1.28-1.70496 17.35168-4.62336 34.84672-8.74496 52.48-4.12672 17.63328-8.81664 34.27328-14.08 49.92-5.26336 15.64672-10.80832 29.79328-16.64 42.45504-5.83168 12.65664-11.30496 22.54336-16.42496 29.65504-14.22336 19.62496-31.36 38.11328-51.41504 55.46496-20.05504 17.35168-44.16 34.84672-72.32 52.48-3.98336-5.40672-8.24832-9.74336-12.8-13.01504-4.55168-3.27168-9.95328-6.18496-16.21504-8.74496 29.29664-14.50496 54.32832-29.51168 75.09504-45.01504 20.76672-15.50336 37.97504-32.49664 51.62496-50.98496-12.23168-15.36-23.53664-28.23168-33.92-38.61504-10.38336-10.38336-19.98336-18.56-28.8-24.53504l19.62496-22.18496c9.95328 8.81664 19.91168 18.84672 29.86496 30.08C472.46336 539.66336 481.42336 550.68672 489.38496 561.49504L489.38496 561.49504z" fill="#272636" p-id="11542"></path></svg>