<svg t="1693242470633" class="icon" viewBox="0 0 1024 1024" version="1.1" xmlns="http://www.w3.org/2000/svg" p-id="10513" width="200" height="200"><path d="M288 96a32 32 0 1 1 0 64h-64a32 32 0 0 0-32 32v672c0 17.706667 14.293333 32 32 32h576a32 32 0 0 0 32-32V192a32 32 0 0 0-32-32h-64a32 32 0 1 1 0-64h64A96 96 0 0 1 896 192v672a96 96 0 0 1-96 96H224A96 96 0 0 1 128 864V192a96 96 0 0 1 96-96z m64 384A32 32 0 0 1 384 512v192.981333a32 32 0 1 1-64 0V512a32 32 0 0 1 32-32zM512 416a32 32 0 0 1 32 32v256.981333a32 32 0 1 1-64 0V448a32 32 0 0 1 32-32z m160-128a32 32 0 0 1 32 32v384.981333a32 32 0 1 1-64 0V320a32 32 0 0 1 32-32zM640 64a32 32 0 0 1 32 32v64a32 32 0 0 1-32 32H384.085333a32 32 0 0 1-32-32v-64a32 32 0 0 1 32-32z"  p-id="10514"></path></svg>