<svg t="1693125379161" class="icon" viewBox="0 0 1165 1024" version="1.1" xmlns="http://www.w3.org/2000/svg" p-id="12566" width="200" height="200"><path d="M905.62867578 975.95439453H254.13903125c-89.86064063 0-162.62822461-72.76758398-162.62822461-162.62822461V259.99950781c0-89.86064063 72.76758398-162.62822461 162.62822461-162.62822461h54.2094082V62.69679688c0-10.74420703 8.79071484-19.53492187 19.53492188-19.53492188h15.6279375c10.74420703 0 19.53492187 8.79071484 19.53492187 19.53492187v34.67448633h434.16363868V62.69679688c0-10.74420703 8.79071484-19.53492187 19.53492187-19.53492188h15.6279375c10.74420703 0 19.53492187 8.79071484 19.53492187 19.53492187v34.67448633h54.20940821c89.86064063 0 162.62822461 72.76758398 162.62822461 162.62822461v552.83828907c-0.48837305 90.34901367-73.25595703 163.11659766-163.11659766 163.11659765z m108.41881641-715.95488672c0-60.06988477-48.34893164-108.41881641-108.41881641-108.4188164h-54.2094082v89.37226757c0 10.74420703-8.79071484 19.53492187-19.53492188 19.53492188h-15.6279375c-10.74420703 0-19.53492187-8.79071484-19.53492187-19.53492188V151.58069141H362.55784766v89.37226757c0 10.74420703-8.79071484 19.53492187-19.53492188 19.53492188h-15.6279375c-10.74420703 0-19.53492187-8.79071484-19.53492187-19.53492188V151.58069141h-53.72103516c-60.06988477 0-108.41881641 48.83730469-108.41881641 108.4188164v88.88389453h868.32727735V259.99950781z m0 143.58167578H145.72021484v409.74498633c0 60.06988477 48.34893164 108.41881641 108.41881641 108.41881641h651.00127148c60.06988477 0 108.41881641-48.34893164 108.41881641-108.41881641V403.58118359z m-127.95373828 379.95423047H653.62818359c-10.74420703 0-19.53492187-8.79071484-19.53492187-19.53492187v-15.6279375c0-10.74420703 8.79071484-19.53492187 19.53492187-19.53492188h232.46557032c10.74420703 0 19.53492187 8.79071484 19.53492187 19.53492188v15.6279375c0 10.74420703-8.79071484 19.53492187-19.53492187 19.53492187z m0-217.32600586H653.62818359c-10.74420703 0-19.53492187-8.79071484-19.53492187-19.53492187V531.53492187c0-10.74420703 8.79071484-19.53492187 19.53492187-19.53492187h232.46557032c10.74420703 0 19.53492187 8.79071484 19.53492187 19.53492187v15.6279375c0 10.25583398-8.79071484 19.04654883-19.53492187 19.04654883zM389.90673828 783.53541406c-74.72107617 0-135.76770703-60.55825781-135.76770703-135.76770703S315.18566211 512 389.90673828 512s135.76770703 60.55825781 135.76770703 135.76770703-61.04663086 135.76770703-135.76770703 135.76770703z m0-217.32600586c-44.93032031 0-81.55829883 36.62797852-81.55829883 81.55829883s36.62797852 81.55829883 81.55829883 81.55829883 81.55829883-36.62797852 81.55829883-81.55829883-36.62797852-81.55829883-81.55829883-81.55829883z" p-id="12567"></path></svg>